# xmcd CD database file
#
# Track frame offsets:
#	183
#	10018
#	21150
#	31975
#	40488
#	51650
#	62343
#	75193
#	88625
#	99808
#	109710
#	119045
#	129428
#	138353
#	147360
#	158418
#	168843
#	179165
#
# Disc length: 2638 seconds
#
# Revision: 0
# Processed by: cddbd v1.4PL0 Copyright (c) Steve Scherf et al.
# Submitted via: CDex 1.50Beta7
#
DISCID=e40a4c12
DTITLE=Artistes Variés - SURF !
DYEAR=1992
DGENRE=New Age
TTITLE0=Surfin'-The Beach Boys
TTITLE1=Surf City-Jan&Dean
TTITLE2=Papa Oom Mow Mow-The Revingtons
TTITLE3=Hawaii Five-O-The Ventures
TTITLE4=Surfin'U.S.A.-The Beach Boys
TTITLE5=Surfin'Bird-The Trashmen
TTITLE6=Theme from "Endless Summer"-The Sandals
TTITLE7=Wipe Out-The Ventures
TTITLE8=Finksville U.S.A.-Mr Gasser and The WEIRDOS
TTITLE9=Shoot The Curl-The Honeys
TTITLE10=Tell'em I'm Surfin'-The Fantastic Baggies
TTITLE11=Ride the Wild Surf-Jan&Dean
TTITLE12=Surfer's Stomp-The Marketts
TTITLE13=Summer Means Fun-The Fantastic Baggies
TTITLE14=Surfer Gil-The Beach Boys
TTITLE15=Goofy Foot Glen-John Severson
TTITLE16=Sidewalk Surfin-Jan&Dean
TTITLE17=Good Vibration,Help me Rhonda,I get Arround,Shut down,Surfin' Safari,Barbara Ann,Surfin'USA,Fun Fun Fun-The Beach Boys Medley
EXTD=YEAR: 1992
EXTT0=
EXTT1=
EXTT2=
EXTT3=
EXTT4=
EXTT5=
EXTT6=
EXTT7=
EXTT8=
EXTT9=
EXTT10=
EXTT11=
EXTT12=
EXTT13=
EXTT14=
EXTT15=
EXTT16=
EXTT17=
PLAYORDER=
